<svg id="Capa_1" data-name="Capa 1" xmlns="http://www.w3.org/2000/svg" viewBox="0 0 551.6 150.1"><defs><style>.cls-1{fill:#07a5c0;}.cls-2{fill:#edf8fa;}.cls-3{fill:#e7f6f8;}.cls-4{fill:#f7fbfc;}.cls-5{fill:#eef8fa;}.cls-6{fill:#dcf2f5;}.cls-7{fill:#d9f1f5;}.cls-8{fill:#ebf7f9;}.cls-9{fill:#d0edf2;}.cls-10{fill:#d4eff4;}.cls-11{fill:#caebf1;}.cls-12{fill:#fbfdfd;}.cls-13{fill:#ccecf1;}.cls-14{fill:#e0f3f6;}.cls-15{fill:#f1f9fb;}.cls-16{fill:#f5fbfc;}</style></defs><title>Condosoft</title><path class="cls-1" d="M213.1,104.2c-2.9,1.4-8.6,2.9-16,2.9-17.1,0-30-10.8-30-30.7S180,44.5,198.8,44.5c7.6,0,12.3,1.6,14.4,2.7l-1.9,6.4a28.5,28.5,0,0,0-12.2-2.5c-14.2,0-23.7,9.1-23.7,25s8.5,24.4,23.3,24.4A31.4,31.4,0,0,0,211.5,98Z" transform="translate(-2.8 -0.8)"/><path class="cls-1" d="M261.1,84c0,16.1-11.2,23.1-21.7,23.1s-20.9-8.6-20.9-22.4,9.5-23.1,21.6-23.1S261.1,70.7,261.1,84Zm-34.6.5c0,9.5,5.5,16.7,13.2,16.7S253,94.1,253,84.3c0-7.4-3.7-16.7-13-16.7S226.5,76.2,226.5,84.5Z" transform="translate(-2.8 -0.8)"/><path class="cls-1" d="M271.1,74.4c0-4.5-.1-8.2-.4-11.8h7l.4,7.2h.2a16,16,0,0,1,14.4-8.2c6,0,15.4,3.6,15.4,18.5v26h-7.9V81.1c0-7-2.6-12.9-10.1-12.9a11.3,11.3,0,0,0-10.6,8.1A11.4,11.4,0,0,0,279,80v26.2h-7.9Z" transform="translate(-2.8 -0.8)"/><path class="cls-1" d="M358.7,42.3V94.9c0,3.9.1,8.3.4,11.3h-7.1l-.4-7.6h-.2c-2.4,4.9-7.7,8.5-14.8,8.5-10.5,0-18.6-8.9-18.6-22.1s8.9-23.4,19.5-23.4c6.7,0,11.2,3.1,13.1,6.7h.2v-26Zm-7.9,38.1a14,14,0,0,0-.4-3.3,11.6,11.6,0,0,0-11.4-9.2c-8.2,0-13,7.2-13,16.8s4.3,16.1,12.9,16.1a11.9,11.9,0,0,0,11.6-9.4,13.7,13.7,0,0,0,.4-3.4Z" transform="translate(-2.8 -0.8)"/><path class="cls-1" d="M411.2,84c0,16.1-11.2,23.1-21.7,23.1s-20.9-8.6-20.9-22.4,9.5-23.1,21.6-23.1S411.2,70.7,411.2,84Zm-34.6.5c0,9.5,5.5,16.7,13.2,16.7s13.2-7.1,13.2-16.9c0-7.4-3.7-16.7-13-16.7S376.7,76.2,376.7,84.5Z" transform="translate(-2.8 -0.8)"/><path class="cls-1" d="M420.1,98.1a20.8,20.8,0,0,0,10.4,3.1c5.8,0,8.5-2.9,8.5-6.5s-2.2-5.9-8.1-8c-7.8-2.8-11.5-7.1-11.5-12.3,0-7,5.7-12.8,15-12.8a21.7,21.7,0,0,1,10.7,2.7l-2,5.8a17,17,0,0,0-8.9-2.5c-4.7,0-7.3,2.7-7.3,5.9s2.6,5.2,8.3,7.4c7.6,2.9,11.4,6.7,11.4,13.1s-5.9,13-16.3,13a24.8,24.8,0,0,1-12.2-3Z" transform="translate(-2.8 -0.8)"/><path class="cls-1" d="M496.3,84c0,16.1-11.2,23.1-21.7,23.1s-20.9-8.6-20.9-22.4,9.5-23.1,21.6-23.1S496.3,70.7,496.3,84Zm-34.6.5c0,9.5,5.5,16.7,13.2,16.7s13.2-7.1,13.2-16.9c0-7.4-3.7-16.7-13-16.7S461.7,76.2,461.7,84.5Z" transform="translate(-2.8 -0.8)"/><path class="cls-1" d="M507.1,106.2V68.6h-6.1v-6h6.1V60.5c0-6.1,1.3-11.7,5-15.2a15.2,15.2,0,0,1,10.6-4,18.4,18.4,0,0,1,6.8,1.3l-1.1,6.1a11.8,11.8,0,0,0-5-1c-6.7,0-8.5,5.9-8.5,12.6v2.3h10.5v6H514.9v37.5Z" transform="translate(-2.8 -0.8)"/><path class="cls-1" d="M543.1,50.1V62.6h11.3v6H543.1V92.1c0,5.4,1.5,8.5,5.9,8.5a17.6,17.6,0,0,0,4.6-.5l.4,5.9a19.4,19.4,0,0,1-7,1.1c-3.7,0-6.7-1.2-8.5-3.3s-3.1-6.2-3.1-11.3V68.6h-6.7v-6h6.8V52.2Z" transform="translate(-2.8 -0.8)"/><path class="cls-1" d="M2.8,150.9c5-5.7,11.9-8.4,18.8-11,2.5-1,3.5-2.1,3.4-4.9-1-25.7-1.5-51.6-6.1-77-1.2-6.6-.2-10.4,5.7-13.7s9.2-6.6,14.6-10.6v5.5q0,45,0,90c0,1.1,0,2.1,0,3.2s-.1,1.9,1.2,2,1.6-.8,1.6-1.7.1-2.4.1-3.6q0-44.8,0-89.6v-6L63.3,49.2c1.1.8.8,1.7.6,2.8-5.1,25.5-6.3,51.4-8.3,77.2-.1,1.4-.6,2.8,1.7,2.8s2.7-.7,2.5-2.7,0-4.2-.1-6.3C58.1,99,61.3,75.3,65.9,51.8c.4-2.1.1-3.4-1.6-4.6s-2.7-1.4-3.4-3.2c3.6-1.1,4.1-3.8,3.6-7-.2-1.4-1.2-1-2-.8-3.8.6-3.4,3.5-3.4,6.7-4-2-6.2-4.3-7.4-8.7-2.4-9.3-.1-15.4,8.4-20.3,6.2-3.5,11.5-8.6,17.3-13,1.1,1.9.6,3.6.6,5.1q0,59.9,0,119.9c0,1.1,0,2.1,0,3.2s-.1,2,1.1,2.1,1.2-1,1.3-1.9,0-2.4,0-3.6q0-58.8,0-117.6V2.1L104,20.7c1.5,1.2,1.2,2.6,1,4.1-1.2,8.7-2.4,17.3-3.5,26-.2,1.7-.6,2.9-2.6,3a5.5,5.5,0,0,1-.2-1.3c.2-2,.5-4-2.4-4.3-.9-.1-1.9-.8-2.1.6s-2.4,4.5.2,6,1.2,2,0,2.6-2.3,2.8-1.9,4.9a95.3,95.3,0,0,1,1.8,16.2c.1,2.1,1.1,4.3-2,6.1-1.3.8-2.2,5.6,1,7.3s1.9,2.3,2.1,3.9c.9,10.7.8,21.4.7,32.1,0,1.4-1.2,3.8,1.4,4s1.7-2.4,1.7-3.7c-.5-19.7-.5-39.5-3.3-59.1-1-7.3,1.1-11,7.1-14.1,4.4-2.2,8.3-5.3,13-8.5,0,2.4,0,4,0,5.6q0,38.9,0,77.8c0,1.2,0,2.4.1,3.6s.8,1.1,1.6,1.1,1-.5,1-1.2.1-2.4.1-3.6c0-27.4,0-54.9,0-83.4l17.5,14.3c1.3,1.1.6,2.6.3,3.8-4,23.4-3.6,47.1-4,70.8,0,2.7,1.2,3.6,3.4,4.4,6.9,2.7,13.7,5.4,18.8,11.1ZM84.5,17.2c-.6,8.5-.6,8.5,5.8,10.3C91,19.8,91,19.8,84.5,17.2Zm16.7,11.4c1.1-4.3-2.2-5-4.3-5.3s-1.3,2.6-1.7,4c-1.2,3.7,1.8,4.6,4.2,4.8S100.7,29.4,101.2,28.5Zm-1.1,10.7c1-3.6-1.8-4-3.5-4.1s-1.7,2.6-2.2,4.2.6,4.8,3.4,4.8S98.8,40.3,100.1,39.2Zm-26-22c-6,2-6.3,2.6-4.7,10C74.9,25.7,74.9,25.7,74.1,17.3ZM64.2,28.4c-1.4-1.2.8-4.8-2.5-4.8-1.5,0-4.6.8-3.9,3.8S57.6,32,60.4,32,64.6,31.6,64.2,28.4Zm20.1,1.5c0,2.1,0,4.2,0,6.2s2,2.3,3.3,3,1.3.2,1.7-.7C90.8,34.7,88.8,31,84.3,29.9Zm0,12.4c0,2.5-.2,4.6,0,6.7s2.3,3,3.9,3,.9-2.1,1.1-3.2C90,45.2,88.3,43.2,84.3,42.3Zm-9.9.3c-5.2.1-4.7,3.5-4.5,6.7.1,1-.7,2.8,1.2,2.7s3.4-.4,3.3-2.7S74.4,44.8,74.4,42.6Zm0-12.7C69.2,32,68.3,34.6,70.5,40,76.7,38.6,73.8,33.9,74.4,29.9Zm14,60.4c-.4-3.5,1.5-6.8-1.7-9.1-.7-.5-1.6-1.8-2.4,0S84.8,88.3,88.4,90.3Zm-14-35c-4.9.3-4.8,3.4-4.5,6.5.1,1.1-.9,3.1,1.4,2.9s3.3-.7,3.2-3S74.4,57.6,74.4,55.4ZM84,67.3c.9,4-1.7,8.5,4.2,10.1C88.4,73.6,89.8,69.8,84,67.3Zm3.6,31.2c0-.7,0-1.5,0-2.2s-.3-3.3-2.1-3.3-1,2-1.2,3.1a30.1,30.1,0,0,0,0,3.5c-.1,1.7,0,3.7,2.2,3.5s.8-2.1,1.1-3.3A5.3,5.3,0,0,0,87.6,98.5Zm1-37.8c.7-3.1-.3-5.3-2.9-5.4s-1.1,2.4-1.3,3.7.1,4.8,3,4.9S88.1,61.4,88.6,60.7ZM68.3,99c-.8-1.2,1.1-3.9-1.8-3.6s-1.8,3-1.8,4.7-1.1,3.9,1.7,3.7S67.5,100.6,68.3,99Zm2.1-21.1c6.4-1.9,3-6.4,4.1-10C68.2,69.6,71.3,74.1,70.4,77.9Zm-15.1-24c-.8,2.9.6,3.9,2.8,4.1s1.7-2.1,2-3.2c.7-2.8-2-3.1-3.6-3.4S55.8,53.2,55.3,53.9Zm-1.6,19c-.6,2.6,1.2,3.5,2.7,3.5s1.2-2.3,1.4-3.5a2.5,2.5,0,0,0-2.7-3.3C52.9,69.6,54.1,71.9,53.7,72.8Zm33.9,38.8c-.2-2,.6-4.6-2.2-4.5s-1,2.4-1,3.6-.9,4.5,1.9,4.6S87,112.8,87.6,111.7ZM50.6,60.8c.7-2.5-.8-3.6-2.7-3.8s-1.3,2-1.5,3.2.8,3.4,2.9,3.5S50.2,61.7,50.6,60.8Zm.1,19.4c.5-2.5-.7-3.9-2.9-4.2s-1.2,1.9-1.4,2.9.2,3.5,2.5,3.9S50.4,81.2,50.6,80.2ZM94.2,99.8c-.4-1.6.8-4.3-2.1-4s-1.2,2.6-1.3,4-.9,4.2,1.9,3.9S93.6,101.1,94.2,99.8ZM46.1,95.1c1,2.5-1.6,5.9,2.7,6.8,1.1.2,1.7-.2,1.8-1.3C50.9,97.6,50.7,95.1,46.1,95.1Zm.2-47.9c.8,2.5-1.8,5.7,2.4,6.8,1.2.3,1.9-.1,2-1.6S50.4,47.3,46.3,47.2Zm4.2,62.2c.6-2.8-.4-4.4-2.7-4.6s-1.3,1.8-1.4,2.9.2,3.4,2.6,3.7S50.3,109.8,50.5,109.3Zm-4.1,4.8c.6,2.3-1.9,5.5,2.1,6.7,1.1.4,2,.1,2.1-1.4C51,116.4,50.3,114.2,46.4,114.2ZM67,75.7c-.7-1.3.9-4-1.4-4s-2.6,2.4-2.4,4.5-.8,3.3,1.8,3.2S66.8,77.3,67,75.7ZM50.6,70.3c.4-2.3-.6-3.5-2.8-3.7s-1.4,1.8-1.5,2.8.1,3.6,2.6,3.7S50.4,71.4,50.6,70.3ZM46.3,88.2c-.1,2.1-.2,3.8,2.5,4s1.7-1.5,1.9-2.7S50.1,86,48,85.7,46.6,87.4,46.3,88.2ZM68,87.7c-.9-1,.7-3.8-2-3.8s-1.3,2.3-1.4,3.7-.7,3.3,1.7,3.4S67.8,89.3,68,87.7ZM58.8,63.8c.7-2.4-1-2.9-2.7-3.2s-1.5,1.3-1.7,2.4A2.8,2.8,0,0,0,57,66.5C59.3,66.8,58.5,64.8,58.8,63.8Zm15.5,42c-4.4,1.8-2.5,5.1-2.9,7.5-.1.7-.4,2,1.1,1.8s1.8-.6,1.8-1.7S74.3,108.7,74.3,105.8Zm0-12.5c-4.2,1.9-2.5,5-2.9,7.4-.1.7-.4,2,1,1.9a1.8,1.8,0,0,0,1.9-1.6C74.4,98.6,74.3,96.3,74.3,93.3ZM56.2,91.2c-.4-1.3.9-3.5-2-3.5s-1.7,1.7-1.6,2.9-.9,3.5,2,3.5S55.9,92.3,56.2,91.2ZM73.9,80.8c-3.8,1.6-2.1,4.5-2.4,6.8-.1.7-.7,2.4,1.1,2.2a1.9,1.9,0,0,0,1.8-2.1C74.3,85.5,74.8,83.3,73.9,80.8ZM128,77.6c-1.1,3.7,0,5.7,3.7,5.9C132.8,80.2,131.6,78.3,128,77.6ZM68.2,111.5c-.6-1.2,1.1-3.8-1.6-3.8s-1.3,2.3-1.3,3.6-1.1,3.9,1.5,3.9S67.7,112.9,68.2,111.5Zm25.3-.1c-.4-1.5.9-4.3-2-4.1s-.9,2.4-.9,3.7-.9,4.3,1.8,4.1S93,112.7,93.5,111.5Zm35.5-49.3c-1.4,3.7.9,5,3.8,5.9C133.9,64.6,132.5,62.7,128.9,62.2Zm2.8,13.5c.5-4.5.5-4.5-3.8-5.6C126.8,73.3,128.3,74.9,131.7,75.7ZM121.2,89.6c.5,2.4-1.1,5,2.3,5.9,1,.3,1.3-.1,1.4-1C125.2,91.9,124.8,89.9,121.2,89.6Zm.4-15.5c-.4,2.7-1.3,5.6,3.1,5.9C125.1,77.3,125.8,74.5,121.6,74.1Zm3.2,45c.2-3,1-5.8-3.1-6.1C121.2,117.5,121.2,117.5,124.8,119.1Zm-3.6-52.8c.7,2.1-1.2,4.7,2.1,5.7.8.2,1.4.2,1.6-.8S125,66.7,121.2,66.3Zm3.6-1.8c.3-2.7,1.1-5.5-3.2-5.9C121.2,61.4,120.4,64.2,124.7,64.5Zm-3.6,40.6c.7,2.2-1.2,4.8,2.1,5.8.8.2,1.5.3,1.6-.8S125,105.5,121.2,105.1Zm3.5-3.4c.8-3-.5-4-2.3-4s-.8,1.5-1,2.4.7,3.2,2.6,3.2S124.6,101.7,124.6,101.6ZM121.5,82c.2,2-1.5,4.6,1.9,5.6.9.2,1.4.1,1.5-.9S125,82,121.5,82Zm0,38.9c.2,2-1.5,4.5,1.9,5.5.8.2,1.4.1,1.5-.9S125,120.8,121.5,120.9Zm-67-12.2c-.5-.8.6-2.5-1.3-2.6s-1.5,1.5-1.4,2.6-.6,3.1,1.5,3S54.1,109.9,54.5,108.7ZM128,85.9c-.5,2-1.1,4,1.6,5.1.8.3,1.4.1,1.5-.8S130.7,86.1,128,85.9ZM54.5,118.1c-.6-.7.6-2.6-1.5-2.4s-1.2,1.8-1.2,2.9-.5,2.8,1.2,2.9S54,119.4,54.5,118.1Zm76.8,2.4c.2-.8-.6-1.4-2.1-1.5s-1.5,1.1-1.5,2.1.6,2.7,2.3,2.6S131.1,122.3,131.3,120.5ZM54.5,99c-.5-.7.6-2.5-1.5-2.3s-1.1,1.8-1.2,2.8-.3,2.7,1.5,2.5S54.1,100.1,54.5,99Zm1.8-17.1c0-1.2.4-2.6-1.4-2.7s-1.4,1.4-1.5,2.4,0,3,1.8,2.9S55.9,82.8,56.3,81.9Zm74.2,14.9a2,2,0,0,0-1.8-2.6c-1.5-.2-.9,1.2-1,1.9s.4,2.8,2,2.8S130.3,97.6,130.5,96.8Zm-1.1,10.4c1.4,0,1-1.1,1.1-1.9s.1-2.5-1.6-2.7-1.1,1-1.2,1.8A2.2,2.2,0,0,0,129.4,107.3Zm-1.2,3.6c-.7.1-.6,1-.6,1.9s.2,2.5,1.7,2.7,1.1-1.1,1.1-1.9S130.6,111.1,128.2,110.9Z" transform="translate(-2.8 -0.8)"/><path class="cls-2" d="M84.5,17.2c6.4,2.6,6.4,2.6,5.8,10.3C84,25.7,84,25.7,84.5,17.2Z" transform="translate(-2.8 -0.8)"/><path class="cls-3" d="M101.2,28.5c-.5.9,1.1,3.8-1.8,3.5s-5.4-1.1-4.2-4.8c.4-1.4-1.2-4.3,1.7-4S102.3,24.2,101.2,28.5Z" transform="translate(-2.8 -0.8)"/><path class="cls-3" d="M100.1,39.2c-1.4,1.1,1.2,4.7-2.3,4.8s-4.3-1.7-3.4-4.8-.7-4.4,2.2-4.2S101.1,35.6,100.1,39.2Z" transform="translate(-2.8 -0.8)"/><path class="cls-4" d="M74.1,17.3c.7,8.4.7,8.4-4.7,10C67.8,19.9,68.1,19.3,74.1,17.3Z" transform="translate(-2.8 -0.8)"/><path class="cls-5" d="M64.2,28.4c.4,3.2-2.4,3.6-3.8,3.6s-2.2-2.9-2.6-4.6,2.4-3.8,3.9-3.8C65,23.5,62.8,27.2,64.2,28.4Z" transform="translate(-2.8 -0.8)"/><path class="cls-6" d="M84.3,29.9c4.5,1.1,6.5,4.9,5,8.5-.4.9-.9,1.1-1.7.7s-3.3-.8-3.3-3S84.3,32,84.3,29.9Z" transform="translate(-2.8 -0.8)"/><path class="cls-7" d="M84.3,42.3c3.9.9,5.6,2.9,5,6.5-.2,1.2.8,3.2-1.1,3.2s-3.6-.8-3.9-3S84.3,44.8,84.3,42.3Z" transform="translate(-2.8 -0.8)"/><path class="cls-8" d="M74.4,42.6c0,2.2,0,4.4,0,6.6s-1.9,2.6-3.3,2.7-1.2-1.7-1.2-2.7C69.7,46.2,69.2,42.7,74.4,42.6Z" transform="translate(-2.8 -0.8)"/><path class="cls-4" d="M74.4,29.9c-.7,3.9,2.3,8.7-3.9,10.1C68.3,34.6,69.2,32,74.4,29.9Z" transform="translate(-2.8 -0.8)"/><path class="cls-9" d="M88.4,90.3c-3.7-2-5.4-6.5-4.1-9.1s1.7-.5,2.4,0C89.9,83.6,88,86.8,88.4,90.3Z" transform="translate(-2.8 -0.8)"/><path class="cls-5" d="M74.4,55.4c0,2.3-.1,4.4,0,6.4s-1.6,2.9-3.2,3-1.3-1.9-1.4-2.9C69.6,58.7,69.5,55.7,74.4,55.4Z" transform="translate(-2.8 -0.8)"/><path class="cls-10" d="M84,67.3c5.8,2.5,4.3,6.4,4.2,10.1C82.3,75.7,85,71.3,84,67.3Z" transform="translate(-2.8 -0.8)"/><path class="cls-11" d="M87.6,98.5a5.4,5.4,0,0,1,0,1.3c-.3,1.1.9,3.1-1.1,3.3s-2.3-1.8-2.2-3.5a30.1,30.1,0,0,1,0-3.5c.2-1.1-.8-3.1,1.2-3.1s2.2,1.7,2.1,3.3S87.6,97.7,87.6,98.5Z" transform="translate(-2.8 -0.8)"/><path class="cls-8" d="M88.6,60.7c-.5.7,1.5,3.3-1.3,3.2s-3.4-2.5-3-4.9-1.2-3.8,1.3-3.7S89.3,57.6,88.6,60.7Z" transform="translate(-2.8 -0.8)"/><path class="cls-6" d="M68.3,99c-.8,1.6,1.3,4.5-1.9,4.8s-1.7-2.3-1.7-3.7-1.2-4.5,1.8-4.7S67.5,97.8,68.3,99Z" transform="translate(-2.8 -0.8)"/><path class="cls-12" d="M70.4,77.9c.9-3.8-2.2-8.2,4.1-10C73.5,71.4,76.8,76,70.4,77.9Z" transform="translate(-2.8 -0.8)"/><path class="cls-8" d="M55.3,53.9c.4-.6-1.2-3,1.2-2.5s4.3.7,3.6,3.4c-.3,1.1.6,3.4-2,3.2S54.5,56.7,55.3,53.9Z" transform="translate(-2.8 -0.8)"/><path class="cls-10" d="M53.7,72.8c.4-1-.8-3.2,1.5-3.3a2.5,2.5,0,0,1,2.7,3.3c-.3,1.3.8,3.5-1.4,3.5S53.1,75.4,53.7,72.8Z" transform="translate(-2.8 -0.8)"/><path class="cls-13" d="M87.6,111.7c-.6,1.1,1.1,3.8-1.4,3.7s-1.9-2.9-1.9-4.6-1.1-3.5,1-3.6S87.5,109.7,87.6,111.7Z" transform="translate(-2.8 -0.8)"/><path class="cls-6" d="M50.6,60.8c-.3.9,1,3-1.4,2.9s-3.4-1.2-2.9-3.5-1.1-3.5,1.5-3.2S51.3,58.3,50.6,60.8Z" transform="translate(-2.8 -0.8)"/><path class="cls-6" d="M50.6,80.2c-.2,1.1.7,3-1.8,2.6s-2.9-1.8-2.5-3.9-1-3.2,1.4-2.9S51.1,77.7,50.6,80.2Z" transform="translate(-2.8 -0.8)"/><path class="cls-13" d="M94.2,99.8c-.6,1.3,1.1,3.7-1.4,3.9s-2-2.4-1.9-3.9-1.1-3.8,1.3-4S93.8,98.2,94.2,99.8Z" transform="translate(-2.8 -0.8)"/><path class="cls-14" d="M46.1,95.1c4.6,0,4.8,2.5,4.5,5.5-.1,1.2-.7,1.5-1.8,1.3C44.4,101,47.1,97.6,46.1,95.1Z" transform="translate(-2.8 -0.8)"/><path class="cls-6" d="M46.3,47.2c4.2.2,4.7,2.4,4.4,5.3s-.8,1.9-2,1.6C44.4,52.9,47,49.6,46.3,47.2Z" transform="translate(-2.8 -0.8)"/><path class="cls-6" d="M50.5,109.3c-.2.5,1,2.4-1.6,2.1s-2.9-1.7-2.6-3.7-.9-3.1,1.4-2.9S51.1,106.5,50.5,109.3Z" transform="translate(-2.8 -0.8)"/><path class="cls-6" d="M46.4,114.2c4,0,4.6,2.2,4.3,5.3-.2,1.5-1,1.7-2.1,1.4C44.4,119.7,47,116.5,46.4,114.2Z" transform="translate(-2.8 -0.8)"/><path class="cls-2" d="M67,75.7c-.2,1.5.8,3.6-2,3.7s-1.7-1.9-1.8-3.2-.1-4.5,2.4-4.5S66.4,74.5,67,75.7Z" transform="translate(-2.8 -0.8)"/><path class="cls-14" d="M50.6,70.3c-.2,1.1.6,2.8-1.7,2.8s-2.9-1.7-2.6-3.7-.9-3,1.5-2.8S51,68,50.6,70.3Z" transform="translate(-2.8 -0.8)"/><path class="cls-14" d="M46.3,88.2c.3-.8-.8-2.9,1.6-2.5s3,1.7,2.7,3.8.4,2.8-1.9,2.7S46.2,90.3,46.3,88.2Z" transform="translate(-2.8 -0.8)"/><path class="cls-11" d="M68,87.7c-.1,1.6.6,3.4-1.7,3.3s-1.7-2.1-1.7-3.4-.8-3.7,1.4-3.7S67.1,86.7,68,87.7Z" transform="translate(-2.8 -0.8)"/><path class="cls-6" d="M58.8,63.8c-.3,1.1.5,3.1-1.8,2.7a2.8,2.8,0,0,1-2.5-3.5c.2-1.1-.4-2.7,1.7-2.4S59.4,61.3,58.8,63.8Z" transform="translate(-2.8 -0.8)"/><path class="cls-4" d="M74.3,105.8c0,2.9,0,5.3,0,7.6s-.9,1.5-1.8,1.7-1.2-1.1-1.1-1.8C71.8,110.8,70,107.6,74.3,105.8Z" transform="translate(-2.8 -0.8)"/><path class="cls-4" d="M74.3,93.3c0,3,.1,5.3,0,7.7a1.8,1.8,0,0,1-1.9,1.6c-1.4.1-1.1-1.2-1-1.9C71.8,98.3,70.1,95.2,74.3,93.3Z" transform="translate(-2.8 -0.8)"/><path class="cls-15" d="M56.2,91.2c-.3,1.1.7,2.8-1.7,2.9s-1.9-2-2-3.5-.5-2.8,1.6-2.9S55.8,89.8,56.2,91.2Z" transform="translate(-2.8 -0.8)"/><path class="cls-16" d="M73.9,80.8c.9,2.5.4,4.7.5,6.9a1.9,1.9,0,0,1-1.8,2.1c-1.8.2-1.2-1.5-1.1-2.2C71.7,85.4,70.1,82.4,73.9,80.8Z" transform="translate(-2.8 -0.8)"/><path class="cls-3" d="M128,77.6c3.6.7,4.8,2.6,3.7,5.9C128,83.3,126.9,81.3,128,77.6Z" transform="translate(-2.8 -0.8)"/><path class="cls-6" d="M68.2,111.5c-.5,1.3.8,3.7-1.4,3.7s-1.4-2.5-1.5-3.9-.9-3.6,1.3-3.6S67.6,110.3,68.2,111.5Z" transform="translate(-2.8 -0.8)"/><path class="cls-4" d="M93.5,111.5c-.5,1.3.9,3.6-1,3.7s-1.9-2.5-1.8-4.1-1-3.6.9-3.7S93,109.9,93.5,111.5Z" transform="translate(-2.8 -0.8)"/><path class="cls-15" d="M128.9,62.2c3.6.5,5,2.4,3.8,5.9C129.8,67.2,127.5,65.9,128.9,62.2Z" transform="translate(-2.8 -0.8)"/><path class="cls-3" d="M131.7,75.7c-3.3-.8-4.8-2.4-3.8-5.6C132.2,71.2,132.2,71.2,131.7,75.7Z" transform="translate(-2.8 -0.8)"/><path class="cls-15" d="M121.2,89.6c3.6.3,4,2.3,3.7,4.9-.1.9-.5,1.3-1.4,1C120.1,94.6,121.7,91.9,121.2,89.6Z" transform="translate(-2.8 -0.8)"/><path class="cls-15" d="M121.6,74.1c4.3.4,3.5,3.2,3.1,5.9C120.3,79.7,121.2,76.8,121.6,74.1Z" transform="translate(-2.8 -0.8)"/><path class="cls-15" d="M124.8,119.1c-3.6-1.6-3.6-1.6-3.1-6.1C125.8,113.3,125,116.2,124.8,119.1Z" transform="translate(-2.8 -0.8)"/><path class="cls-16" d="M121.2,66.3c3.9.4,4,2.5,3.7,4.9s-.8,1-1.6.8C120,71,121.9,68.4,121.2,66.3Z" transform="translate(-2.8 -0.8)"/><path class="cls-16" d="M124.7,64.5c-4.3-.3-3.5-3.1-3.2-5.9C125.8,59,125,61.8,124.7,64.5Z" transform="translate(-2.8 -0.8)"/><path class="cls-16" d="M121.2,105.1c3.8.5,4,2.6,3.7,5s-.8,1-1.6.8C120,109.9,121.9,107.2,121.2,105.1Z" transform="translate(-2.8 -0.8)"/><path class="cls-16" d="M124.6,101.6s1,1.6-.7,1.6-3-1.2-2.6-3.2-.7-2.5,1-2.4S125.4,98.7,124.6,101.6Z" transform="translate(-2.8 -0.8)"/><path class="cls-15" d="M121.5,82c3.5,0,3.7,2.1,3.4,4.6s-.6,1.2-1.5.9C120,86.6,121.6,84,121.5,82Z" transform="translate(-2.8 -0.8)"/><path class="cls-5" d="M121.5,120.9c3.5-.1,3.7,2.1,3.4,4.6s-.7,1.2-1.5.9C120,125.4,121.7,122.9,121.5,120.9Z" transform="translate(-2.8 -0.8)"/><path class="cls-14" d="M54.5,108.7c-.3,1.2.5,2.9-1.3,3s-1.4-1.8-1.5-3-.3-2.7,1.4-2.6S54,107.9,54.5,108.7Z" transform="translate(-2.8 -0.8)"/><path class="cls-14" d="M128,85.9c2.7.3,3.5,1.8,3.1,4.2s-.7,1.1-1.5.8C126.9,89.9,127.4,87.9,128,85.9Z" transform="translate(-2.8 -0.8)"/><path class="cls-14" d="M54.5,118.1c-.5,1.3.7,3.3-1.5,3.3s-1.2-1.8-1.2-2.9-.6-2.7,1.2-2.9S53.9,117.4,54.5,118.1Z" transform="translate(-2.8 -0.8)"/><path class="cls-14" d="M131.3,120.5c-.2,1.8.2,3.1-1.4,3.2s-2.4-1-2.3-2.6-.2-2.2,1.5-2.1S131.4,119.7,131.3,120.5Z" transform="translate(-2.8 -0.8)"/><path class="cls-8" d="M54.5,99c-.4,1.2.6,2.8-1.2,3s-1.5-1.4-1.5-2.5-.6-2.6,1.2-2.8S53.9,98.3,54.5,99Z" transform="translate(-2.8 -0.8)"/><path class="cls-16" d="M56.3,81.9c-.4.9.5,2.6-1.2,2.7s-1.9-1.6-1.8-2.9-.5-2.6,1.5-2.4S56.3,80.7,56.3,81.9Z" transform="translate(-2.8 -0.8)"/><path class="cls-8" d="M130.5,96.8c-.2.7.5,2.1-.8,2.1s-2.3-1.3-2-2.8-.4-2.1,1-1.9A2,2,0,0,1,130.5,96.8Z" transform="translate(-2.8 -0.8)"/><path class="cls-16" d="M129.4,107.3a2.2,2.2,0,0,1-1.8-2.8c.1-.8-.3-1.9,1.2-1.8s1.7,1.4,1.6,2.7S130.8,107.3,129.4,107.3Z" transform="translate(-2.8 -0.8)"/><path class="cls-15" d="M128.2,110.9c2.3.2,2.3,1.5,2.2,2.7s.3,2-1.1,1.9-1.8-1.4-1.7-2.7S127.6,111,128.2,110.9Z" transform="translate(-2.8 -0.8)"/></svg>